<svg xmlns="http://www.w3.org/2000/svg" xmlns:xlink="http://www.w3.org/1999/xlink" width="2000" zoomAndPan="magnify" viewBox="0 0 1500 1499.999933" height="2000" preserveAspectRatio="xMidYMid meet" version="1.0"><defs><g/></defs><g fill="#ffffff" fill-opacity="0.302"><g transform="translate(25.742966, 853.652546)"><g><path d="M 0 -31.25 L 0 -187.5 L 187.5 -187.5 L 187.5 -156.25 L 218.75 -156.25 L 218.75 -31.25 L 156.25 -31.25 L 156.25 -156.25 L 62.5 -156.25 L 62.5 -31.25 Z M 0 -31.25 "/></g></g></g><g fill="#ffffff" fill-opacity="0.302"><g transform="translate(275.740025, 853.652546)"><g><path d="M 31.25 -31.25 L 31.25 -62.5 L 0 -62.5 L 0 -156.25 L 31.25 -156.25 L 31.25 -187.5 L 187.5 -187.5 L 187.5 -156.25 L 218.75 -156.25 L 218.75 -93.75 L 62.5 -93.75 L 62.5 -62.5 L 187.5 -62.5 L 187.5 -31.25 Z M 62.5 -125 L 156.25 -125 L 156.25 -156.25 L 62.5 -156.25 Z M 62.5 -125 "/></g></g></g><g fill="#ffffff" fill-opacity="0.302"><g transform="translate(525.737083, 853.652546)"><g><path d="M 31.25 -31.25 L 31.25 -62.5 L 0 -62.5 L 0 -156.25 L 31.25 -156.25 L 31.25 -187.5 L 187.5 -187.5 L 187.5 -156.25 L 218.75 -156.25 L 218.75 -62.5 L 187.5 -62.5 L 187.5 -31.25 Z M 62.5 -62.5 L 156.25 -62.5 L 156.25 -156.25 L 62.5 -156.25 Z M 62.5 -62.5 "/></g></g></g><g fill="#ffffff" fill-opacity="0.302"><g transform="translate(775.734119, 853.652546)"><g><path d="M 93.75 -218.75 L 93.75 -250 L 156.25 -250 L 156.25 -218.75 Z M 31.25 -31.25 L 31.25 -62.5 L 93.75 -62.5 L 93.75 -156.25 L 62.5 -156.25 L 62.5 -187.5 L 156.25 -187.5 L 156.25 -62.5 L 218.75 -62.5 L 218.75 -31.25 Z M 31.25 -31.25 "/></g></g></g><g fill="#ffffff" fill-opacity="0.302"><g transform="translate(1025.7312, 853.652546)"><g><path d="M 0 -31.25 L 0 -62.5 L 156.25 -62.5 L 156.25 -93.75 L 31.25 -93.75 L 31.25 -125 L 0 -125 L 0 -156.25 L 31.25 -156.25 L 31.25 -187.5 L 187.5 -187.5 L 187.5 -156.25 L 62.5 -156.25 L 62.5 -125 L 187.5 -125 L 187.5 -93.75 L 218.75 -93.75 L 218.75 -62.5 L 187.5 -62.5 L 187.5 -31.25 Z M 0 -31.25 "/></g></g></g><g fill="#ffffff" fill-opacity="0.302"><g transform="translate(1275.728281, 853.652546)"><g><path d="M 0 -31.25 L 0 -187.5 L 187.5 -187.5 L 187.5 -156.25 L 218.75 -156.25 L 218.75 -31.25 L 156.25 -31.25 L 156.25 -156.25 L 125 -156.25 L 125 -31.25 L 62.5 -31.25 L 62.5 -156.25 L 31.25 -156.25 L 31.25 -31.25 Z M 0 -31.25 "/></g></g></g><g fill="#ffffff" fill-opacity="0.502"><g transform="translate(12.8715, 864.075602)"><g><path d="M 0 -31.25 L 0 -187.5 L 187.5 -187.5 L 187.5 -156.25 L 218.75 -156.25 L 218.75 -31.25 L 156.25 -31.25 L 156.25 -156.25 L 62.5 -156.25 L 62.5 -31.25 Z M 0 -31.25 "/></g></g></g><g fill="#ffffff" fill-opacity="0.502"><g transform="translate(262.868558, 864.075602)"><g><path d="M 31.25 -31.25 L 31.25 -62.5 L 0 -62.5 L 0 -156.25 L 31.25 -156.25 L 31.25 -187.5 L 187.5 -187.5 L 187.5 -156.25 L 218.75 -156.25 L 218.75 -93.75 L 62.5 -93.75 L 62.5 -62.5 L 187.5 -62.5 L 187.5 -31.25 Z M 62.5 -125 L 156.25 -125 L 156.25 -156.25 L 62.5 -156.25 Z M 62.5 -125 "/></g></g></g><g fill="#ffffff" fill-opacity="0.502"><g transform="translate(512.865617, 864.075602)"><g><path d="M 31.25 -31.25 L 31.25 -62.5 L 0 -62.5 L 0 -156.25 L 31.25 -156.25 L 31.25 -187.5 L 187.5 -187.5 L 187.5 -156.25 L 218.75 -156.25 L 218.75 -62.5 L 187.5 -62.5 L 187.5 -31.25 Z M 62.5 -62.5 L 156.25 -62.5 L 156.25 -156.25 L 62.5 -156.25 Z M 62.5 -62.5 "/></g></g></g><g fill="#ffffff" fill-opacity="0.502"><g transform="translate(762.862653, 864.075602)"><g><path d="M 93.75 -218.75 L 93.75 -250 L 156.25 -250 L 156.25 -218.75 Z M 31.25 -31.25 L 31.25 -62.5 L 93.75 -62.5 L 93.75 -156.25 L 62.5 -156.25 L 62.5 -187.5 L 156.25 -187.5 L 156.25 -62.5 L 218.75 -62.5 L 218.75 -31.25 Z M 31.25 -31.25 "/></g></g></g><g fill="#ffffff" fill-opacity="0.502"><g transform="translate(1012.859734, 864.075602)"><g><path d="M 0 -31.25 L 0 -62.5 L 156.25 -62.5 L 156.25 -93.75 L 31.25 -93.75 L 31.25 -125 L 0 -125 L 0 -156.25 L 31.25 -156.25 L 31.25 -187.5 L 187.5 -187.5 L 187.5 -156.25 L 62.5 -156.25 L 62.5 -125 L 187.5 -125 L 187.5 -93.75 L 218.75 -93.75 L 218.75 -62.5 L 187.5 -62.5 L 187.5 -31.25 Z M 0 -31.25 "/></g></g></g><g fill="#ffffff" fill-opacity="0.502"><g transform="translate(1262.856815, 864.075602)"><g><path d="M 0 -31.25 L 0 -187.5 L 187.5 -187.5 L 187.5 -156.25 L 218.75 -156.25 L 218.75 -31.25 L 156.25 -31.25 L 156.25 -156.25 L 125 -156.25 L 125 -31.25 L 62.5 -31.25 L 62.5 -156.25 L 31.25 -156.25 L 31.25 -31.25 Z M 0 -31.25 "/></g></g></g><g fill="#ffffff" fill-opacity="1"><g transform="translate(0.00003335, 874.498729)"><g><path d="M 0 -31.25 L 0 -187.5 L 187.5 -187.5 L 187.5 -156.25 L 218.75 -156.25 L 218.75 -31.25 L 156.25 -31.25 L 156.25 -156.25 L 62.5 -156.25 L 62.5 -31.25 Z M 0 -31.25 "/></g></g></g><g fill="#ffffff" fill-opacity="1"><g transform="translate(249.997092, 874.498729)"><g><path d="M 31.25 -31.25 L 31.25 -62.5 L 0 -62.5 L 0 -156.25 L 31.25 -156.25 L 31.25 -187.5 L 187.5 -187.5 L 187.5 -156.25 L 218.75 -156.25 L 218.75 -93.75 L 62.5 -93.75 L 62.5 -62.5 L 187.5 -62.5 L 187.5 -31.25 Z M 62.5 -125 L 156.25 -125 L 156.25 -156.25 L 62.5 -156.25 Z M 62.5 -125 "/></g></g></g><g fill="#ffffff" fill-opacity="1"><g transform="translate(499.99415, 874.498729)"><g><path d="M 31.25 -31.25 L 31.25 -62.5 L 0 -62.5 L 0 -156.25 L 31.25 -156.25 L 31.25 -187.5 L 187.5 -187.5 L 187.5 -156.25 L 218.75 -156.25 L 218.75 -62.5 L 187.5 -62.5 L 187.5 -31.25 Z M 62.5 -62.5 L 156.25 -62.5 L 156.25 -156.25 L 62.5 -156.25 Z M 62.5 -62.5 "/></g></g></g><g fill="#ffffff" fill-opacity="1"><g transform="translate(749.991186, 874.498729)"><g><path d="M 93.75 -218.75 L 93.75 -250 L 156.25 -250 L 156.25 -218.75 Z M 31.25 -31.25 L 31.25 -62.5 L 93.75 -62.5 L 93.75 -156.25 L 62.5 -156.25 L 62.5 -187.5 L 156.25 -187.5 L 156.25 -62.5 L 218.75 -62.5 L 218.75 -31.25 Z M 31.25 -31.25 "/></g></g></g><g fill="#ffffff" fill-opacity="1"><g transform="translate(999.988267, 874.498729)"><g><path d="M 0 -31.25 L 0 -62.5 L 156.25 -62.5 L 156.25 -93.75 L 31.25 -93.75 L 31.25 -125 L 0 -125 L 0 -156.25 L 31.25 -156.25 L 31.25 -187.5 L 187.5 -187.5 L 187.5 -156.25 L 62.5 -156.25 L 62.5 -125 L 187.5 -125 L 187.5 -93.75 L 218.75 -93.75 L 218.75 -62.5 L 187.5 -62.5 L 187.5 -31.25 Z M 0 -31.25 "/></g></g></g><g fill="#ffffff" fill-opacity="1"><g transform="translate(1249.985348, 874.498729)"><g><path d="M 0 -31.25 L 0 -187.5 L 187.5 -187.5 L 187.5 -156.25 L 218.75 -156.25 L 218.75 -31.25 L 156.25 -31.25 L 156.25 -156.25 L 125 -156.25 L 125 -31.25 L 62.5 -31.25 L 62.5 -156.25 L 31.25 -156.25 L 31.25 -31.25 Z M 0 -31.25 "/></g></g></g></svg>